<svg width="400" height="400" viewBox="0 0 400 400" fill="none" xmlns="http://www.w3.org/2000/svg">
<path d="M287.04 206.56V308.24C287.04 313.61 285.269 318.58 282.28 322.58C277.9 328.44 270.92 332.23 263.05 332.23H57.66C49.78 332.23 42.79 328.44 38.42 322.58C38.1 322.15 37.79 321.71 37.5 321.25C34.9878 317.376 33.6538 312.857 33.66 308.24V102.849C33.66 89.589 44.4 78.86 57.66 78.86H263.05C271.91 78.86 279.651 83.66 283.8 90.81L250.78 123.839L177.7 196.929L124.47 143.7C115.07 134.3 96.28 134.3 86.9 143.7L64.98 165.61C61.65 168.94 59.5 173.45 58.54 178.299C56.76 187.129 58.91 197.119 64.98 203.19L158.91 297.12C168.3 306.51 187.08 306.51 196.48 297.12L218.4 275.2L287.04 206.56Z" fill="#CCE9FF"/>
<path d="M359.29 134.299L287.04 206.56L218.4 275.2L196.48 297.12C187.08 306.51 168.3 306.51 158.91 297.12L64.98 203.19C58.91 197.12 56.76 187.129 58.54 178.299C59.5 173.449 61.65 168.94 64.98 165.61L86.9 143.7C96.28 134.3 115.07 134.3 124.47 143.7L177.7 196.929L250.78 123.839L283.8 90.81L299.8 74.82C309.2 65.42 327.99 65.42 337.37 74.82L359.29 96.73C361.85 99.299 363.72 102.56 364.88 106.139C367.99 115.679 366.12 127.469 359.29 134.299Z" fill="#2A94F4"/>
</svg>
